#!OML:ASF F:\VICON\USERDATA\INSTALL\rory3\rory3.ASF
:FULLY-SPECIFIED
:DEGREES
158
root -4.45875 17.2009 3.53767 0.457393 32.8706 -1.87877
lowerback 6.28432 -0.0100954 -0.543605
upperback -0.271035 0.0481564 2.44744
thorax -3.80954 0.0620481 2.8342
lowerneck -17.6474 -3.25874 -9.23034
upperneck 22.4365 -2.89733 4.21249
head 10.3027 -1.60272 2.63564
rclavicle 8.17999e-014 0
rhumerus -32.3809 -12.8181 -75.3875
rradius 33.2318
rwrist -2.05993
rhand -17.5694 13.3732
rfingers 7.12502
rthumb 8.68587 -16.4281
lclavicle 8.17999e-014 0
lhumerus -48.6058 31.0137 67.3564
lradius 18.3863
lwrist -18.0618
lhand -15.6606 19.9755
lfingers 7.12502
lthumb 10.5276 49.6919
rfemur -0.962939 2.70431 20.454
rtibia 58.8995
rfoot 14.7629 3.82102
rtoes -0.677065
lfemur -28.1999 3.30468 -26.9911
ltibia 33.0334
lfoot -5.60219 -1.07924
ltoes 9.49739
159
root -4.33422 17.1976 3.74224 0.992891 33.365 -0.716872
lowerback 6.32248 -0.168085 -1.50824
upperback -0.197968 -0.248145 2.17744
thorax -3.73663 -0.0715268 3.12617
lowerneck -17.5969 -3.16062 -9.28076
upperneck 22.179 -2.82255 4.50149
head 10.1979 -1.53585 2.75531
rclavicle 3.3048e-015 1.74931e-014
rhumerus -32.2468 -12.4197 -75.672
rradius 32.9207
rwrist -2.6136
rhand -16.1979 12.0872
rfingers 7.12502
rthumb 10.0092 -17.6548
lclavicle 3.3048e-015 1.74931e-014
lhumerus -47.2013 29.1535 69.357
lradius 18.671
lwrist -16.418
lhand -15.1755 18.5063
lfingers 7.12502
lthumb 10.9955 48.1983
rfemur -2.93505 1.9275 19.1777
rtibia 61.7585
rfoot 12.0921 3.98448
rtoes -1.11486
lfemur -27.1423 3.38069 -28.1158
ltibia 32.9445
lfoot -6.13011 -1.73064
ltoes 9.52774
160
root -4.20196 17.2031 3.93801 1.64642 33.7868 0.590734
lowerback 6.50963 -0.232295 -2.3332
upperback -0.238049 -0.415411 1.7889
thorax -3.86993 -0.140705 3.20665
lowerneck -17.2469 -3.14723 -9.19011
upperneck 21.7446 -2.88802 4.61496
head 9.98029 -1.54308 2.76697
rclavicle -3.33213e-014 -6.36111e-015
rhumerus -32.4168 -12.379 -75.8056
rradius 32.5976
rwrist -2.71629
rhand -15.3607 11.4741
rfingers 7.12502
rthumb 10.8169 -18.2273
lclavicle -3.33213e-014 -6.36111e-015
lhumerus -46.0904 27.5582 70.7466
lradius 18.769
lwrist -15.9701
lhand -15.0597 17.4389
lfingers 7.12502
lthumb 11.1072 47.125
rfemur -5.15952 1.07708 17.6568
rtibia 64.2868
rfoot 10.0245 3.8568
rtoes -0.392531
lfemur -26.063 3.39096 -29.3851
ltibia 32.7806
lfoot -6.74563 -2.22359
ltoes 9.32038
161
root -4.06734 17.2264 4.13908 1.9725 34.2991 1.52347
lowerback 6.84962 -0.325901 -2.89331
upperback -0.309725 -0.602707 1.54419
thorax -4.11959 -0.219517 3.29227
lowerneck -17.021 -3.14707 -9.14118
upperneck 21.6542 -2.91579 4.59119
head 9.90656 -1.55546 2.74638
rclavicle 1.4238e-014 -1.59028e-015
rhumerus -32.7401 -12.1541 -75.9762
rradius 31.5119
rwrist -0.766612
rhand -17.433 13.6786
rfingers 7.12502
rthumb 8.81752 -16.1172
lclavicle 1.4238e-014 -1.59028e-015
lhumerus -44.7742 25.0912 72.903
lradius 19.1603
lwrist -14.0726
lhand -14.9948 17.6539
lfingers 7.12502
lthumb 11.1698 47.3366
rfemur -7.2692 0.354374 16.6033
rtibia 66.4274
rfoot 8.21435 2.80801
rtoes 2.95627
lfemur -24.752 3.22934 -30.2436
ltibia 32.5866
lfoot -7.3636 -2.07534
ltoes 9.84373
162
root -3.93564 17.2402 4.33979 2.29096 35.075 2.11836
lowerback 6.9918 -0.526976 -3.21395
upperback -0.372656 -0.905534 1.45623
thorax -4.23838 -0.360553 3.41591
lowerneck -16.9135 -3.12579 -9.02354
upperneck 21.5944 -2.8838 4.41331
head 9.85842 -1.55145 2.66773
rclavicle -6.82328e-014 -2.38542e-014
rhumerus -32.9316 -12.255 -75.9036
rradius 31.2051
rwrist 0.0384657
rhand -16.9663 13.4393
rfingers 7.12502
rthumb 9.26785 -16.337
lclavicle -6.82328e-014 -2.38542e-014
lhumerus -43.3699 22.8653 75.1399
lradius 19.734
lwrist -12.5862
lhand -14.7189 18.9251
lfingers 7.12502
lthumb 11.4359 48.5933
rfemur -9.29267 -0.554958 15.9631
rtibia 68.1917
rfoot 6.60825 2.05663
rtoes 2.02361
lfemur -23.6085 2.73278 -30.7451
ltibia 32.4202
lfoot -7.944 -1.92293
ltoes 10.9033
